<svg xmlns="http://www.w3.org/2000/svg" width="32" height="32" viewBox="0 0 24 24" fill="none" stroke="#4c5296" stroke-width="2" stroke-linecap="round" stroke-linejoin="round">
  <rect width="24" height="24" rx="4" fill="#4c5296" />
  <path d="M3.55 19.09l1.41 1.41 1.79-1.8-1.41-1.41zM11 20h2v3h-2zM1 11h3v2H1zM13 4h-2V1h2zM19.09 3.55l-1.41 1.41 1.8 1.79 1.41-1.41zM17.24 18.71l1.79 1.8 1.41-1.41-1.8-1.79zM20 11h3v2h-3zM12 5.95L17.05 11H7L12 5.95zM12 16c1.66 0 3-1.34 3-3 0-.07-.03-.13-.04-.2l-2.96-2.96-2.96 2.96c-.01.07-.04.13-.04.2 0 1.66 1.34 3 3 3z" fill="white" />
</svg>
